<?xml version="1.0" encoding="UTF-8"?>
<svg width="257px" height="25px" viewBox="0 0 257 25" version="1.1" xmlns="http://www.w3.org/2000/svg" xmlns:xlink="http://www.w3.org/1999/xlink">
    <!-- Generator: Sketch 51.1 (57501) - http://www.bohemiancoding.com/sketch -->
    <title>Group 42@2x</title>
    <desc>Created with Sketch.</desc>
    <defs>
        <polygon id="path-1" points="0.5656 0.9001 19.9048305 0.9001 19.9048305 25 0.5656 25"></polygon>
    </defs>
    <g id="修改" stroke="none" stroke-width="1" fill="none" fill-rule="evenodd">
        <g id="iPhone-8">
            <g id="Group-42" transform="translate(0.000000, -1.000000)">
                <path d="M10.1659,11.5 L8.0659,10.6 C5.4659,9.5 4.9659,8.5 4.9659,7.3 C4.9659,5.6 6.5659,4.9 8.1659,4.9 C9.7659,4.9 10.7659,5.4 11.8659,6.5 C11.9659,6.6 12.1659,6.8 12.2659,7 C12.4659,7.2 12.6659,7.2 12.8659,7 L15.0659,4.8 C15.2659,4.7 15.2659,4.4 15.0659,4.3 C14.8659,4.1 14.6659,3.8 14.5659,3.7 C12.8659,2 10.7659,1.1 8.1659,1.1 C4.6659,1.1 0.9659,3.4 0.9659,7.2 C0.9659,10.3 2.6659,12.5 6.2659,14 L8.3659,14.9 C10.8659,16 11.8659,17 11.8659,18.6 C11.8659,20.3 10.4659,21.3 8.0659,21.3 C6.4659,21.3 4.8659,20.6 3.6659,19.4 C3.6659,19.4 3.3659,19 3.1659,18.8 C3.0659,18.6 2.7659,18.6 2.5659,18.8 L0.1659,20.8 C-0.0341,20.9 -0.0341,21.2 0.0659,21.3 C0.1659,21.5 0.3659,21.7 0.4659,21.8 C2.1659,23.8 5.0659,25.1 8.0659,25.1 C12.7659,25.1 15.8659,22.4 15.8659,18.4 C15.8659,14.4 12.6659,12.5 10.1659,11.5" id="Fill-1" fill="#003B4C"></path>
                <path d="M93.6659,16.3999 C93.3659,11.0999 90.1659,7.7999 85.2659,7.7999 C80.4659,7.7999 76.6659,11.5999 76.6659,16.3999 C76.6659,21.2999 80.4659,24.9999 85.4659,24.9999 C87.8659,24.9999 90.1659,24.1999 91.8659,22.7999 C91.9659,22.6999 92.2659,22.4999 92.4659,22.2999 C92.6659,22.1999 92.6659,21.8999 92.4659,21.7999 L90.5659,19.7999 C90.3659,19.5999 90.1659,19.5999 89.9659,19.7999 C89.7659,19.9999 89.4659,20.2999 89.2659,20.3999 C88.4659,20.9999 87.2659,21.6999 85.4659,21.6999 C83.1659,21.6999 81.3659,20.2999 80.7659,18.2999 C80.6659,17.9999 80.8659,17.7999 81.1659,17.7999 L92.8659,17.7999 C93.3659,17.7999 93.6659,17.3999 93.6659,16.9999 L93.6659,16.3999 Z M81.4659,14.1999 C81.1659,14.1999 80.9659,13.8999 81.0659,13.5999 C81.8659,12.0999 83.3659,11.1999 85.1659,11.1999 C87.0659,11.1999 88.5659,12.0999 89.1659,13.5999 C89.2659,13.8999 89.0659,14.1999 88.7659,14.1999 L81.4659,14.1999 Z" id="Fill-3" fill="#003B4C"></path>
                <path d="M123.9657,24.7998 L127.1657,24.7998 C127.3657,24.7998 127.5657,24.5998 127.5657,24.3998 L127.5657,15.0998 C127.5657,14.8998 127.7657,14.6998 127.9657,14.6998 L133.5657,14.6998 C133.7657,14.6998 133.8657,14.5998 133.9657,14.3998 L134.7657,11.3998 C134.8657,11.1998 134.6657,10.8998 134.3657,10.8998 L127.9657,10.8998 C127.7657,10.8998 127.5657,10.6998 127.5657,10.4998 L127.5657,5.4998 C127.5657,5.2998 127.7657,5.0998 127.9657,5.0998 L136.1657,5.0998 C136.3657,5.0998 136.4657,4.9998 136.5657,4.7998 L137.3657,1.7998 C137.4657,1.5998 137.2657,1.2998 136.9657,1.2998 L123.9657,1.2998 C123.7657,1.2998 123.5657,1.4998 123.5657,1.6998 L123.5657,24.2998 C123.5657,24.5998 123.7657,24.7998 123.9657,24.7998" id="Fill-5" fill="#003B4C"></path>
                <path d="M139.4657,24.7998 L142.4657,24.7998 C142.6657,24.7998 142.8657,24.5998 142.8657,24.3998 L142.8657,8.4998 C142.8657,8.1998 142.5657,8.0998 142.3657,8.0998 L139.3657,8.8998 C139.1657,8.8998 139.0657,9.0998 139.0657,9.2998 L139.0657,24.3998 C139.0657,24.5998 139.2657,24.7998 139.4657,24.7998" id="Fill-7" fill="#003B4C"></path>
                <path d="M156.0658,16 L161.7658,8.6 C161.9658,8.3 161.7658,8 161.4658,8 L158.1658,8 C157.8658,8 157.6658,8.1 157.5658,8.3 L153.9658,13 C153.7658,13.2 153.4658,13.2 153.3658,13 L149.6658,8.2 C149.4658,8 149.2658,7.9 149.0658,7.9 L145.7658,7.9 C145.4658,7.9 145.2658,8.3 145.4658,8.5 L151.1658,15.9 C151.2658,16 151.2658,16.2 151.1658,16.4 L145.1658,24.1 C144.9658,24.4 145.1658,24.7 145.4658,24.7 L148.7658,24.7 C149.0658,24.7 149.2658,24.6 149.3658,24.4 L153.2658,19.3 C153.4658,19.1 153.7658,19.1 153.8658,19.3 L157.7658,24.4 C157.9658,24.6 158.1658,24.7 158.3658,24.7 L161.6658,24.7 C161.9658,24.7 162.1658,24.3 161.9658,24.1 L155.9658,16.4 C155.9658,16.3 155.9658,16.1 156.0658,16" id="Fill-9" fill="#003B4C"></path>
                <path d="M104.5658,8.2998 C108.4658,8.6998 111.3658,11.9998 111.3658,15.7998 L111.3658,24.3998 C111.3658,24.5998 111.1658,24.7998 110.9658,24.7998 L107.9658,24.7998 C107.7658,24.7998 107.5658,24.5998 107.5658,24.3998 L107.5658,15.7998 C107.5658,13.8998 106.1658,12.2998 104.2658,12.0998 C102.0658,11.8998 100.2658,13.5998 100.2658,15.6998 L100.2658,24.4998 C100.2658,24.6998 100.0658,24.8998 99.8658,24.8998 L96.8658,24.8998 C96.6658,24.8998 96.4658,24.6998 96.4658,24.4998 L96.4658,15.6998 C96.3658,11.3998 100.1658,7.8998 104.5658,8.2998" id="Fill-11" fill="#003B4C"></path>
                <path d="M53.1659,1.5 L50.1659,2.3 C49.9659,2.3 49.8659,2.5 49.8659,2.7 L49.8659,9.3 C49.8659,9.5 49.6659,9.5 49.5659,9.5 C47.9659,8.6 46.0659,8.1 44.0659,8.3 C40.0659,8.7 36.8659,11.8 36.3659,15.7 C35.7659,20.8 39.8659,25.1 44.9659,25.1 C49.7659,25.1 53.5659,21.3 53.5659,16.7 L53.5659,16.6 L53.5659,2 C53.6659,1.6 53.3659,1.4 53.1659,1.5 M45.0659,21.3 C42.3659,21.3 40.2659,19.2 40.2659,16.6 C40.2659,14 42.4659,11.9 45.0659,11.9 C47.7659,11.9 49.8659,14 49.8659,16.6 C49.8659,19.2 47.6659,21.3 45.0659,21.3" id="Fill-13" fill="#003B4C"></path>
                <path d="M73.2655,1.5 L70.2655,2.3 C70.0655,2.3 69.9655,2.5 69.9655,2.7 L69.9655,9.3 C69.9655,9.5 69.7655,9.5 69.6655,9.5 C68.0655,8.6 66.1655,8.1 64.1655,8.3 C60.1655,8.7 56.9655,11.8 56.4655,15.7 C55.8655,20.8 59.9655,25.1 65.0655,25.1 C69.8655,25.1 73.6655,21.3 73.6655,16.7 L73.6655,16.6 L73.6655,2 C73.7655,1.6 73.5655,1.4 73.2655,1.5 M65.1655,21.3 C62.4655,21.3 60.3655,19.2 60.3655,16.6 C60.3655,14 62.5655,11.9 65.1655,11.9 C67.8655,11.9 69.9655,14 69.9655,16.6 C69.9655,19.2 67.7655,21.3 65.1655,21.3" id="Fill-15" fill="#003B4C"></path>
                <path d="M25.2655,25 C21.3655,24.6 18.4655,21.3 18.4655,17.5 L18.4655,9.8 C18.4655,9.6 18.5655,9.5 18.7655,9.4 L21.7655,8.6 C22.0655,8.5 22.2655,8.7 22.2655,9 L22.2655,17.5 C22.2655,19.4 23.6655,21 25.5655,21.2 C27.7655,21.4 29.5655,19.7 29.5655,17.6 L29.5655,9.7 C29.5655,9.5 29.6655,9.4 29.8655,9.3 L32.8655,8.5 C33.1655,8.4 33.3655,8.6 33.3655,8.9 L33.3655,17.5 C33.4655,22 29.7655,25.4 25.2655,25" id="Fill-17" fill="#003B4C"></path>
                <path d="M140.9657,6.5 C142.3657,6.5 143.4657,5.4 143.4657,4.1 C143.4657,2.8 142.3657,1.7 140.9657,1.7 C139.5657,1.7 138.4657,2.8 138.4657,4.1 C138.4657,5.4 139.5657,6.5 140.9657,6.5" id="Fill-19" fill="#22D3C5"></path>
                <path d="M177.6659,5.1001 C177.5659,5.0001 177.2659,5.1001 177.2659,5.3001 L177.2659,24.8001 C177.2659,25.0001 177.4659,25.1001 177.6659,25.0001 L179.3659,23.3001 C179.4659,23.2001 179.5659,23.0001 179.5659,22.8001 L179.5659,7.3001 C179.5659,7.1001 179.4659,6.9001 179.3659,6.8001 L177.6659,5.1001 Z" id="Fill-21" fill="#22D3C5"></path>
                <path d="M195.1659,2.5 L182.3659,2.5 C182.0659,2.5 181.7659,2.4 181.5659,2.2 L180.9659,1.6 C180.8659,1.5 180.6659,1.4 180.4659,1.4 L177.8659,1.4 C177.6659,1.4 177.5659,1.6 177.6659,1.8 L179.7659,3.8 C180.4659,4.4 181.2659,4.8 182.1659,4.8 L194.5659,4.8 C195.1659,4.8 195.7659,5.3 195.7659,5.9 L195.7659,22.8 C195.7659,23 195.8659,23.2 195.9659,23.3 L197.6659,25 C197.7659,25.1 198.0659,25 198.0659,24.8 L198.0659,5.3 C198.0659,3.8 196.7659,2.5 195.1659,2.5" id="Fill-23" fill="#22D3C5"></path>
                <path d="M192.2655,14.8999 L188.9655,11.6999 C188.8655,11.5999 188.8655,11.4999 188.8655,11.3999 L188.8655,9.8999 C188.8655,9.6999 188.6655,9.5999 188.4655,9.6999 L182.1655,15.8999 C182.0655,15.9999 181.9655,16.1999 181.9655,16.3999 L181.9655,18.9999 C181.9655,19.1999 182.1655,19.2999 182.3655,19.1999 L187.5655,14.0999 C187.6655,13.9999 187.7655,13.9999 187.8655,14.0999 L192.3655,18.3999 L193.1655,19.0999 C193.2655,19.1999 193.5655,19.0999 193.5655,18.8999 L193.5655,16.2999 C193.5655,16.0999 193.4655,15.8999 193.3655,15.7999 L192.2655,14.8999 Z" id="Fill-25" fill="#22D3C5"></path>
                <g id="Group-29" transform="translate(205.000000, 0.100000)">
                    <mask id="mask-2" fill="white">
                        <use xlink:href="#path-1"></use>
                    </mask>
                    <g id="Clip-28"></g>
                    <path d="M19.8656,24.5001 L18.1656,22.8001 C18.0656,22.7001 17.8656,22.6001 17.6656,22.6001 L11.9656,22.6001 C11.5656,22.6001 11.2656,22.3001 11.2656,21.9001 L11.2656,12.7001 C11.2656,12.6001 11.3656,12.5001 11.4656,12.5001 L17.0656,12.5001 C17.1656,12.5001 17.2656,12.6001 17.2656,12.7001 L17.2656,16.0001 C17.2656,16.4001 16.9656,16.7001 16.5656,16.7001 L11.7656,16.7001 C11.5656,16.7001 11.4656,16.9001 11.5656,17.1001 L13.2656,18.8001 C13.3656,18.9001 13.5656,19.0001 13.7656,19.0001 L17.2656,19.0001 C18.5656,19.0001 19.5656,18.0001 19.5656,16.7001 L19.5656,6.0001 C19.5656,4.8001 18.5656,3.7001 17.2656,3.7001 L11.4656,3.7001 C11.3656,3.7001 11.2656,3.6001 11.2656,3.5001 L11.2656,1.4001 C11.2656,1.2001 11.0656,0.9001 10.7656,0.9001 L9.3656,0.9001 C9.0656,0.9001 8.8656,1.1001 8.8656,1.4001 L8.8656,3.5001 C8.8656,3.6001 8.7656,3.7001 8.6656,3.7001 L2.8656,3.7001 C1.5656,3.7001 0.5656,4.7001 0.5656,6.0001 L0.5656,16.7001 C0.5656,17.9001 1.5656,19.0001 2.8656,19.0001 L8.4656,19.0001 C8.7656,19.0001 8.9656,19.2001 8.9656,19.5001 L8.9656,22.7001 C8.9656,23.9001 9.9656,25.0001 11.2656,25.0001 L19.6656,25.0001 C19.8656,24.9001 19.9656,24.7001 19.8656,24.5001 Z M17.3656,10.1001 C17.3656,10.2001 17.2656,10.3001 17.1656,10.3001 L11.5656,10.3001 C11.4656,10.3001 11.3656,10.2001 11.3656,10.1001 L11.3656,6.3001 C11.3656,6.2001 11.4656,6.1001 11.5656,6.1001 L16.6656,6.1001 C17.0656,6.1001 17.3656,6.4001 17.3656,6.8001 L17.3656,10.1001 Z M3.5656,16.8001 C3.1656,16.8001 2.8656,16.5001 2.8656,16.1001 L2.8656,6.8001 C2.8656,6.4001 3.1656,6.1001 3.5656,6.1001 L8.6656,6.1001 C8.7656,6.1001 8.8656,6.2001 8.8656,6.3001 L8.8656,10.1001 C8.8656,10.2001 8.7656,10.3001 8.6656,10.3001 L5.4656,10.3001 C5.2656,10.3001 5.1656,10.5001 5.2656,10.7001 L6.9656,12.4001 C7.0656,12.5001 7.2656,12.6001 7.4656,12.6001 L8.6656,12.6001 C8.7656,12.6001 8.8656,12.7001 8.8656,12.8001 L8.8656,16.6001 C8.8656,16.7001 8.7656,16.8001 8.6656,16.8001 L3.5656,16.8001 Z" id="Fill-27" fill="#22D3C5" mask="url(#mask-2)"></path>
                </g>
                <path d="M237.2655,9 L237.2655,18.6 C237.2655,18.8 237.4655,18.9 237.6655,18.8 L239.3655,17.1 C239.4655,17 239.5655,16.8 239.5655,16.6 L239.5655,7 C239.5655,6.8 239.3655,6.7 239.1655,6.8 L237.4655,8.5 C237.3655,8.6 237.2655,8.8 237.2655,9" id="Fill-30" fill="#22D3C5"></path>
                <path d="M232.9657,5.7002 L232.9657,24.8002 C232.9657,25.0002 233.1657,25.1002 233.3657,25.0002 L235.0657,23.3002 C235.1657,23.2002 235.2657,23.0002 235.2657,22.8002 L235.2657,6.3002 C235.2657,6.0002 235.3657,5.7002 235.5657,5.5002 L239.4657,1.7002 C239.5657,1.6002 239.4657,1.3002 239.2657,1.3002 L236.6657,1.3002 C236.4657,1.3002 236.2657,1.4002 236.1657,1.5002 L233.5657,4.0002 C233.2657,4.5002 232.9657,5.1002 232.9657,5.7002" id="Fill-32" fill="#22D3C5"></path>
                <path d="M249.7655,6.7002 L253.1655,3.4002 C253.3655,3.2002 253.4655,2.9002 253.4655,2.6002 L253.4655,2.5002 C253.4655,1.9002 252.9655,1.4002 252.2655,1.4002 L245.7655,1.4002 C245.1655,1.4002 244.5655,1.6002 244.1655,2.1002 L241.2655,4.9002 C241.1655,5.0002 241.0655,5.2002 241.0655,5.4002 L241.0655,7.7002 C241.0655,7.9002 241.2655,8.0002 241.4655,7.9002 L244.2655,5.2002 C244.3655,5.1002 244.4655,5.1002 244.5655,5.2002 L246.2655,6.9002 C246.3655,7.0002 246.3655,7.1002 246.2655,7.2002 L241.4655,11.9002 C241.3655,12.0002 241.4655,12.3002 241.6655,12.3002 L243.9655,12.3002 C244.1655,12.3002 244.3655,12.2002 244.4655,12.1002 L247.8655,8.8002 C247.9655,8.7002 248.0655,8.7002 248.1655,8.8002 L253.5655,14.1002 C253.6655,14.2002 253.8655,14.3002 254.0655,14.3002 L256.3655,14.3002 C256.5655,14.3002 256.6655,14.1002 256.5655,13.9002 L249.7655,7.3002 C249.6655,6.9002 249.6655,6.8002 249.7655,6.7002 M246.2655,3.3002 L249.7655,3.3002 C249.8655,3.3002 249.9655,3.4002 249.8655,3.5002 L248.1655,5.1002 C248.0655,5.2002 247.9655,5.2002 247.8655,5.1002 L246.1655,3.5002 C246.0655,3.5002 246.1655,3.3002 246.2655,3.3002" id="Fill-34" fill="#22D3C5"></path>
                <path d="M242.7655,15.7002 L245.0655,15.7002 C245.2655,15.7002 245.4655,15.6002 245.5655,15.5002 L249.5655,11.6002 C249.6655,11.5002 249.5655,11.2002 249.3655,11.2002 L247.0655,11.2002 C246.8655,11.2002 246.6655,11.3002 246.5655,11.4002 L242.5655,15.3002 C242.4655,15.5002 242.5655,15.7002 242.7655,15.7002" id="Fill-36" fill="#22D3C5"></path>
                <path d="M246.1659,19.5 L251.3659,14.5 C251.4659,14.4 251.3659,14.1 251.1659,14.1 L248.8659,14.1 C248.6659,14.1 248.4659,14.2 248.3659,14.3 L243.1659,19.3 C243.0659,19.4 243.1659,19.7 243.3659,19.7 L245.6659,19.7 C245.8659,19.7 246.0659,19.6 246.1659,19.5" id="Fill-38" fill="#22D3C5"></path>
                <path d="M242.4657,25 L244.7657,25 C244.9657,25 245.1657,24.9 245.2657,24.8 L252.1657,18.1 C252.2657,18 252.1657,17.7 251.9657,17.7 L249.6657,17.7 C249.4657,17.7 249.2657,17.8 249.1657,17.9 L242.2657,24.6 C242.1657,24.8 242.2657,25 242.4657,25" id="Fill-40" fill="#22D3C5"></path>
            </g>
        </g>
    </g>
</svg>